<svg width="246" height="240" viewBox="0 0 246 240" fill="none" xmlns="http://www.w3.org/2000/svg">
<g style="mix-blend-mode:hard-light">
<path fill-rule="evenodd" clip-rule="evenodd" d="M7.60706 75.6949C7.40424 75.9001 7.18732 76.1195 6.96364 76.3432C6.75888 76.5507 6.49206 76.6857 6.20363 76.7279C5.9152 76.77 5.6209 76.7169 5.36535 76.5767C5.1098 76.4365 4.90694 76.2168 4.78752 75.9509C4.66811 75.685 4.63866 75.3874 4.70364 75.1032C4.94364 73.9832 5.20364 72.9432 5.30364 72.5832L5.96248 70.4056C8.70147 61.3505 11.4411 52.2933 14.4036 43.3132C16.7084 36.4152 20.1417 29.9474 24.5636 24.1732C29.1179 18.1395 34.8292 13.0742 41.3636 9.27322C50.1736 4.12322 59.8136 2.21322 69.7036 1.06322C73.7436 0.593223 77.8236 0.433223 81.8936 0.343223C84.6066 0.283231 87.324 0.303217 90.0429 0.323214C91.4029 0.333217 92.7633 0.343223 94.1236 0.343223V0.743223C96.1596 0.743223 98.1977 0.714355 100.237 0.685476C104.317 0.627688 108.4 0.569858 112.474 0.743223C123.189 1.19548 133.93 1.83514 144.65 2.47352L147.334 2.63322C151.364 2.89061 155.389 3.25351 159.413 3.61627C161.33 3.7891 163.247 3.96189 165.164 4.12322C165.307 4.11613 165.45 4.14001 165.584 4.19322C166.477 4.50368 167.403 4.70841 168.344 4.80322C168.556 4.83434 168.751 4.93787 168.895 5.09626C169.04 5.25466 169.126 5.45818 169.137 5.67236C169.149 5.88654 169.086 6.0982 168.96 6.27149C168.834 6.44478 168.651 6.56904 168.444 6.62322L168.159 6.68732C167.07 6.93293 166.093 7.15322 165.744 7.15322C159.594 7.82322 153.444 8.37322 147.284 8.89322C144.904 9.09259 142.523 9.2722 140.141 9.45179C129.622 10.2451 119.107 11.0381 108.784 13.5332C106.943 13.9958 105.058 14.2687 103.174 14.5415C101.31 14.8112 99.4485 15.0807 97.6336 15.5332C90.8336 17.2232 84.0336 19.0232 77.3736 21.2232C71.5036 23.1732 65.7636 25.5732 60.0836 28.0432C47.7097 33.3594 36.6354 41.295 27.6236 51.3032C24.1445 55.1906 21.0221 59.3592 17.8948 63.5343L17.8947 63.5344L17.8947 63.5345C16.1951 65.8035 14.4941 68.0744 12.7336 70.3032C11.5538 71.869 10.2132 73.3069 8.73364 74.5932C8.51371 74.7777 8.10253 75.1937 7.6072 75.6948L7.60706 75.6949ZM84.2533 192.804C82.0276 189.15 80.3846 185.173 79.3833 181.014C77.8034 173.204 76.8433 165.244 76.0333 157.304C75.5935 152.787 75.0047 148.061 74.4125 143.307L74.4123 143.306C73.6581 137.252 72.8983 131.153 72.4333 125.384C69.5933 110.734 70.5434 89.8736 70.6333 87.9336C70.8289 83.7451 71.3698 79.5698 71.9097 75.4023C72.0323 74.4557 72.1549 73.5095 72.2733 72.5637C72.4255 71.6603 72.6258 70.7657 72.8734 69.8837C73.2911 70.8459 73.9939 71.657 74.8868 72.2075C75.7798 72.758 76.8201 73.0216 77.8675 72.9626C78.9149 72.9036 79.919 72.5249 80.7445 71.8776C81.57 71.2302 82.1772 70.3454 82.4843 69.3423C82.7914 68.3392 82.7835 67.2661 82.4619 66.2676C82.1402 65.2691 81.5201 64.3932 80.6852 63.758C79.8503 63.1228 78.8408 62.7588 77.7927 62.7151C76.7445 62.6714 75.7082 62.9501 74.8233 63.5136C75.3034 62.021 75.8882 60.564 76.5733 59.1536C79.1933 54.4636 81.1933 52.5636 85.1433 50.5836C86.783 49.7244 88.6209 49.3143 90.4703 49.3951C92.3197 49.4759 94.1148 50.0447 95.6733 51.0436C96.3353 51.4984 97.0949 51.7911 97.8909 51.898C98.6868 52.005 99.4968 51.9231 100.255 51.6592C101.014 51.3953 101.7 50.9566 102.257 50.3787C102.815 49.8007 103.229 49.0997 103.465 48.3323C103.702 47.5648 103.755 46.7525 103.619 45.9609C103.484 45.1692 103.164 44.4206 102.686 43.7753C102.208 43.1301 101.585 42.6063 100.867 42.2465C100.149 41.8866 99.3564 41.7006 98.5533 41.7036C98.3389 41.7083 98.125 41.7283 97.9133 41.7636C92.063 42.1962 86.335 43.6587 80.9933 46.0836C71.3233 50.8636 65.4833 59.3836 60.8033 68.6836C59.3248 71.6408 58.2616 74.8547 57.2016 78.0589L57.2016 78.059C56.8278 79.189 56.4544 80.3178 56.0633 81.4336C53.6508 88.736 52.0479 96.2812 51.2833 103.934C50.0194 113.382 49.7379 122.937 50.4433 132.444C51.0519 139.839 52.1375 147.188 53.6933 154.444C55.2313 161.059 57.6248 167.446 60.8134 173.444C63.4734 178.564 67.0534 182.874 70.7334 187.094C74.7349 191.647 78.9541 195.958 83.181 200.276C84.2357 201.353 85.2909 202.431 86.3434 203.514C87.2635 204.427 88.3542 205.151 89.5533 205.644C90.1733 205.904 91.6433 205.644 91.7533 205.304C91.8888 204.877 91.9365 204.428 91.8935 203.983C91.8506 203.538 91.7178 203.106 91.5033 202.714C90.5904 201.41 89.5982 200.156 88.6088 198.905C87.0406 196.923 85.4797 194.95 84.2533 192.804ZM90.2253 136.534L90.2258 136.534C93.447 135.264 97.2762 133.754 99.9336 132.883C100.141 132.853 100.327 132.741 100.451 132.573C100.576 132.405 100.629 132.195 100.599 131.988C100.568 131.781 100.457 131.595 100.289 131.47C100.121 131.345 99.9105 131.293 99.7036 131.323C97.2732 131.467 93.8624 131.793 90.7065 132.094C87.0712 132.441 83.7742 132.755 82.7036 132.723C80.8536 132.673 79.6236 131.873 79.3236 130.003C79.2472 129.021 79.4838 128.04 79.9994 127.201C80.515 126.362 81.2832 125.708 82.1936 125.333C83.3833 125.016 84.6037 124.828 85.8336 124.773H86.0536C85.0221 124.285 84.1837 123.465 83.6721 122.445C83.1605 121.425 83.0051 120.263 83.2308 119.144C83.4565 118.025 84.0502 117.014 84.9173 116.272C85.7844 115.53 86.875 115.1 88.0152 115.049C89.1554 114.999 90.2795 115.332 91.2085 115.995C92.1374 116.658 92.8177 117.613 93.1408 118.708C93.464 119.802 93.4113 120.973 92.9914 122.035C92.5714 123.096 91.8083 123.986 90.8236 124.563C92.8236 124.493 94.6636 124.413 96.8236 124.263C98.4724 124.149 100.11 123.883 101.748 123.616L101.75 123.616C102.257 123.534 102.765 123.451 103.274 123.373C103.604 123.323 104.174 123.223 104.904 123.073C104.447 122.413 104.151 121.654 104.042 120.858C103.932 120.063 104.011 119.252 104.272 118.493C104.534 117.733 104.97 117.046 105.546 116.486C106.123 115.927 106.822 115.511 107.589 115.271C108.356 115.032 109.168 114.977 109.96 115.11C110.752 115.243 111.502 115.56 112.149 116.036C112.796 116.512 113.322 117.134 113.684 117.851C114.046 118.568 114.234 119.36 114.234 120.163C114.232 120.499 114.199 120.834 114.134 121.163C116.349 120.707 118.538 120.137 120.694 119.453C122.775 118.648 124.843 117.816 126.912 116.984L126.913 116.984L126.914 116.983L126.915 116.983L126.916 116.983L126.917 116.982L126.918 116.982L126.919 116.981L126.92 116.981L126.922 116.98L126.923 116.98L126.924 116.979L126.925 116.979L126.926 116.979L126.927 116.978L126.928 116.978L126.929 116.977L126.93 116.977L126.931 116.976L126.933 116.976L126.934 116.976L126.935 116.975L126.936 116.975L126.937 116.974L126.938 116.974L126.939 116.973L126.94 116.973L126.941 116.973L126.942 116.972L126.944 116.972L126.945 116.971L126.946 116.971L126.947 116.97L126.948 116.97L126.951 116.969L126.951 116.969C129.492 115.947 132.032 114.926 134.594 113.953C134.824 113.853 135.554 113.503 136.644 112.953C136.153 112.372 135.798 111.688 135.605 110.952C135.413 110.216 135.387 109.446 135.531 108.699C135.674 107.952 135.983 107.247 136.435 106.634C136.886 106.022 137.469 105.518 138.14 105.161C138.812 104.803 139.555 104.6 140.315 104.566C141.075 104.533 141.833 104.67 142.533 104.967C143.233 105.265 143.858 105.715 144.362 106.285C144.865 106.856 145.235 107.531 145.444 108.263C147.824 106.943 150.404 105.493 153.034 103.943C152.428 104.194 151.779 104.323 151.124 104.323C149.918 104.329 148.749 103.908 147.824 103.134C146.899 102.36 146.279 101.284 146.072 100.096C145.866 98.908 146.087 97.6853 146.697 96.6449C147.306 95.6045 148.265 94.8138 149.402 94.413C150.539 94.0123 151.782 94.0274 152.909 94.4558C154.036 94.8842 154.975 95.6981 155.559 96.7531C156.143 97.808 156.334 99.0358 156.099 100.218C155.864 101.401 155.217 102.462 154.274 103.213C159.1 100.404 163.774 97.3399 168.274 94.0331C170.732 92.2598 173.071 90.3255 175.274 88.2431C179.015 84.5102 182.619 80.6335 186.222 76.7593C186.865 76.0669 187.509 75.3745 188.154 74.6831C188.58 74.2332 188.918 73.698 189.257 73.1612C189.498 72.7792 189.739 72.3964 190.014 72.0431C191.061 70.4913 192.26 69.0476 193.594 67.7331C194.041 67.4179 194.554 67.2075 195.094 67.1175C195.634 67.0275 196.188 67.0602 196.714 67.2131C197.136 67.5002 197.482 67.8864 197.72 68.3379C197.959 68.7893 198.084 69.2923 198.084 69.8031C197.981 72.1335 197.557 74.4387 196.824 76.6531C196.394 77.7889 195.974 78.9299 195.553 80.0712L195.553 80.0721L195.552 80.073L195.552 80.0739L195.552 80.0748L195.551 80.0757L195.551 80.0766L195.551 80.0774L195.55 80.0783L195.55 80.0792L195.55 80.0801L195.549 80.081L195.549 80.0819L195.549 80.0828L195.548 80.0837L195.548 80.0846L195.548 80.0855L195.547 80.0864L195.547 80.0873L195.547 80.0882L195.546 80.0891L195.546 80.0899L195.546 80.0908L195.546 80.0917L195.545 80.0926L195.545 80.0935L195.545 80.0944L195.544 80.0953L195.544 80.0962L195.544 80.0971L195.543 80.098L195.543 80.0989L195.543 80.0998L195.542 80.1007L195.542 80.1025L195.542 80.1027C193.829 84.7481 192.115 89.3979 189.824 93.7331C186.194 100.326 182.212 106.719 177.894 112.883C172.324 121.113 165.124 127.903 157.594 134.283C154.762 136.681 151.675 138.778 148.588 140.873L148.588 140.873L148.587 140.874L148.587 140.874L148.587 140.874L148.586 140.875L148.586 140.875L148.585 140.875L148.585 140.876L148.584 140.876L148.584 140.876L148.583 140.877L148.583 140.877L148.582 140.877L148.582 140.877L148.581 140.878L148.581 140.878L148.581 140.878L148.58 140.879L148.58 140.879L148.579 140.879L148.579 140.88L148.578 140.88L148.578 140.88L148.577 140.881L148.577 140.881L148.576 140.881L148.576 140.882L148.576 140.882L148.575 140.882L148.575 140.883L148.574 140.883L148.574 140.883L148.573 140.884L148.573 140.884C147.533 141.59 146.493 142.296 145.464 143.013C142.96 144.825 140.355 146.494 137.664 148.013C134.054 149.953 130.304 151.663 126.544 153.303C125.695 153.673 124.848 154.053 124 154.434L123.997 154.435L123.994 154.436L123.991 154.438C120.674 155.925 117.343 157.418 113.874 158.373C108.278 159.927 102.589 161.17 96.905 162.412L96.9022 162.413C95.1613 162.794 93.4208 163.174 91.6836 163.563C90.9936 163.713 90.2836 163.843 89.5836 163.943C84.8836 164.563 83.1636 163.633 82.7936 159.783C82.6438 158.225 82.5083 156.649 82.3724 155.066C82.2089 153.164 82.0447 151.253 81.8536 149.353L81.8077 148.886C81.6206 146.984 81.5289 146.051 81.2136 143.983C80.7536 141.033 81.6836 139.533 84.6036 138.663C85.5091 138.394 87.6768 137.539 90.2253 136.534ZM225.483 125.329C226.203 125.282 226.924 125.396 227.594 125.663C228.384 126.133 228.674 128.253 228.494 129.463C228.335 130.309 228.18 131.158 228.024 132.007C227.172 136.664 226.317 141.337 224.854 145.803C222.013 153.977 218.052 161.717 213.084 168.803C208.76 175.421 203.724 181.544 198.064 187.063C193.781 191.075 189.227 194.787 184.434 198.173C180.055 201.369 175.427 204.208 170.594 206.663C165.935 208.8 161.145 210.64 156.254 212.173C153.544 213.197 150.745 213.97 147.894 214.483C128.014 217.573 115.924 215.223 109.384 212.093C103.034 209.133 97.5549 204.587 93.4737 198.893C91.2459 195.87 89.215 192.707 87.3937 189.423C86.0177 186.637 84.8997 183.732 84.0537 180.743C83.4437 178.763 84.4237 177.283 86.2537 176.283C88.9455 174.778 91.8624 174.477 94.7848 174.175C95.901 174.06 97.0181 173.945 98.1237 173.763C99.9799 173.459 101.841 173.182 103.701 172.905L103.702 172.905L103.702 172.905L103.702 172.905L103.703 172.905L103.703 172.905L103.704 172.905L103.704 172.905L103.705 172.905L103.705 172.904L103.705 172.904L103.706 172.904L103.706 172.904L103.707 172.904L103.707 172.904L103.707 172.904L103.708 172.904L103.708 172.904L103.709 172.904L103.709 172.904L103.709 172.904L103.71 172.904L103.71 172.904L103.711 172.904L103.711 172.904L103.712 172.904L103.712 172.904L103.712 172.904L103.713 172.904L103.713 172.904L103.714 172.904L103.714 172.903L103.714 172.903L103.715 172.903L103.719 172.903C107.305 172.369 110.889 171.836 114.434 171.113C122.114 169.533 129.834 167.883 137.434 165.823C144.664 163.873 151.864 161.613 158.864 159.023C165.684 156.523 172.324 153.523 178.964 150.523C185.214 147.723 191.454 144.863 197.534 141.723C202.634 139.053 207.594 136.053 212.534 133.053C214.22 132.018 215.857 130.902 217.493 129.787L217.493 129.787C219.446 128.455 221.398 127.124 223.434 125.933C224.064 125.582 224.764 125.376 225.483 125.329ZM231.343 73.7436C231.343 70.5236 229.043 69.0736 226.343 70.8436C224.141 72.2458 222.148 73.9527 220.423 75.9136C217.884 78.8764 215.434 81.9162 212.985 84.9549C209.648 89.0956 206.312 93.2344 202.753 97.1736C195.563 105.174 188.123 112.934 180.323 120.304C169.883 130.154 158.933 139.444 146.573 146.914C145.618 147.489 144.676 148.092 143.734 148.694L143.731 148.696L143.731 148.696L143.73 148.696L143.73 148.697L143.729 148.697L143.728 148.698L143.728 148.698L143.727 148.698L143.727 148.699L143.726 148.699L143.725 148.699L143.725 148.7L143.724 148.7L143.724 148.701L143.723 148.701C142.541 149.457 141.359 150.213 140.153 150.914C139.706 151.178 139.259 151.445 138.811 151.711L138.804 151.716L138.803 151.716C136.413 153.14 134.013 154.57 131.513 155.774C129.162 156.908 126.756 157.921 124.347 158.936L124.346 158.936L124.346 158.936C122.913 159.539 121.478 160.143 120.053 160.774C119.708 160.891 119.417 161.129 119.233 161.444C118.952 162.013 118.864 162.659 118.983 163.284C119.167 163.521 119.404 163.713 119.675 163.843C119.945 163.973 120.243 164.039 120.543 164.034C122.649 164.027 124.749 163.816 126.813 163.404C133.605 161.689 140.354 159.836 147.107 157.982L148.593 157.574C148.817 157.512 149.04 157.451 149.264 157.39L149.264 157.39C151.963 156.653 154.671 155.912 157.293 154.934C161.683 153.294 166.013 151.484 170.293 149.664C171.035 149.349 171.779 149.039 172.524 148.729L172.524 148.729L172.524 148.729L172.525 148.729L172.525 148.729L172.525 148.729L172.525 148.729L172.526 148.728L172.526 148.728L172.526 148.728L172.526 148.728L172.527 148.728L172.527 148.728L172.527 148.728L172.528 148.727L172.528 148.727L172.528 148.727L172.528 148.727L172.529 148.727L172.529 148.727L172.529 148.727L172.529 148.726L172.53 148.726L172.53 148.726L172.53 148.726L172.531 148.726L172.531 148.726L172.531 148.726L172.531 148.725L172.532 148.725L172.532 148.725L172.532 148.725C175.458 147.507 178.386 146.287 181.173 144.814C186.423 142.044 191.653 139.184 196.633 135.984C205.353 130.374 213.913 124.524 222.463 118.664C226.103 116.174 228.083 112.374 229.153 108.254C231.313 99.9536 231.513 91.4336 231.303 82.9236L231.343 73.7436ZM185.524 37.3734C189.464 39.3309 193.098 41.8505 196.314 44.8534C201.854 50.3334 202.244 55.9434 195.914 61.2334C195.058 61.9326 194.205 62.6322 193.351 63.3314C189.885 66.1719 186.428 69.0048 182.914 71.7734C180.744 73.4934 179.264 73.1934 177.124 71.3434C174.523 69.1095 171.922 66.4506 169.306 63.7759L169.305 63.7756C166.218 60.6193 163.109 57.4411 159.954 54.9134C156.274 51.5934 151.144 48.7834 145.684 46.4534V46.7734C145.684 47.6142 145.477 48.4421 145.081 49.184C144.685 49.9259 144.113 50.5589 143.414 51.027C142.716 51.4952 141.913 51.7841 141.076 51.8683C140.24 51.9525 139.395 51.8293 138.617 51.5097C137.84 51.1901 137.153 50.6839 136.617 50.0357C136.081 49.3876 135.714 48.6175 135.546 47.7935C135.379 46.9695 135.417 46.117 135.657 45.3112C135.897 44.5054 136.332 43.7712 136.924 43.1734C130.164 40.9188 123.245 39.1772 116.224 37.9634L114.024 37.7234C113.732 38.8842 113.041 39.9052 112.071 40.6069C111.101 41.3086 109.915 41.6461 108.721 41.5602C107.528 41.4742 106.402 40.9703 105.543 40.1369C104.684 39.3035 104.146 38.194 104.024 37.0034C103.516 36.998 103.011 37.0155 102.508 37.033C102.069 37.0482 101.631 37.0634 101.194 37.0634C96.0811 37.4723 91.0186 38.3629 86.0736 39.7234C85.1939 39.9604 84.3853 40.4248 83.5653 40.8958L83.5652 40.8958C82.3438 41.5974 81.0973 42.3134 79.5536 42.3134C79.3575 42.3107 79.1556 42.3133 78.9519 42.316H78.9518H78.9517H78.9516H78.9515H78.9514H78.9512H78.9511H78.951H78.9509H78.9508C77.6172 42.3333 76.2052 42.3517 75.8236 40.9034C75.6942 39.6031 76.0862 38.3047 76.9136 37.2934C77.9402 36.1035 79.1862 35.1224 80.5836 34.4034C86.4303 31.1928 92.7755 28.9887 99.3536 27.8834C109.179 26.1 119.147 25.2197 129.134 25.2534C131.36 25.4977 133.59 25.7178 135.819 25.9379L135.819 25.9379C140.888 26.4383 145.955 26.9385 150.984 27.7234C158.211 28.8375 165.377 30.3194 172.454 32.1634C176.994 33.3976 181.379 35.1455 185.524 37.3734ZM113.413 18.5275L113.412 18.5276C113.038 18.6393 112.662 18.7513 112.284 18.8634L112.354 19.6134C113.118 19.8968 113.909 20.1045 114.714 20.2334C115.975 20.3156 117.237 20.4045 118.499 20.4934L118.499 20.4934C122.608 20.7827 126.718 21.0722 130.834 21.1334C141.158 21.2399 151.461 22.0887 161.664 23.6734C172.304 25.3934 182.774 27.5134 192.534 32.1634C195.866 33.8889 199.019 35.9423 201.944 38.2934C203.636 39.7729 205.205 41.3883 206.634 43.1234C208.104 44.6834 209.714 45.2734 211.634 43.8534C212.646 43.033 213.711 42.2813 214.824 41.6034C215.55 41.0982 216.433 40.8678 217.314 40.9534C217.784 41.1034 218.194 42.4334 218.104 43.1634C217.994 44.0651 217.751 44.9487 217.508 45.8324C217.309 46.556 217.11 47.2796 216.984 48.0134C215.12 58.4638 211.165 68.4299 205.354 77.3134C204.869 78.0775 204.795 79.1021 204.72 80.1271C204.685 80.6046 204.65 81.0821 204.574 81.5334C205.003 81.3841 205.472 81.2742 205.941 81.1641C206.95 80.9278 207.96 80.6912 208.574 80.0634C211.988 76.61 215.172 72.9353 218.104 69.0634C221.08 64.9698 223.86 60.7397 226.637 56.516L226.638 56.5139C227.836 54.692 229.032 52.8714 230.244 51.0634C234.93 44.146 238.73 36.6675 241.554 28.8034C243.024 24.6134 242.464 22.1934 239.334 19.9534C239.071 19.7648 238.809 19.5595 238.545 19.3531C237.748 18.7277 236.936 18.0914 236.034 17.8734C234.948 17.6073 233.859 17.3338 232.767 17.0595L232.766 17.059L232.765 17.0588C227.825 15.8177 222.828 14.5621 217.784 13.9234C211.681 13.1462 205.5 12.9618 199.33 12.7777C198.515 12.7534 197.699 12.7291 196.884 12.7034C189.754 12.5034 182.604 12.4234 175.484 12.6134C170.936 12.7338 166.394 12.9957 161.853 13.2576L161.853 13.2576C158.477 13.4523 155.101 13.6469 151.724 13.7834C150.731 13.8192 149.739 13.853 148.746 13.8868C137.826 14.2589 126.908 14.6308 116.284 17.6834C115.326 17.9569 114.374 18.2408 113.413 18.5275ZM62.863 182.698L62.864 182.699L62.8644 182.7C63.6079 183.732 64.3514 184.764 65.0836 185.803C65.317 186.165 65.6785 186.454 66.041 186.743C66.4085 187.036 66.777 187.33 67.0136 187.703C67.6673 188.754 68.22 189.877 68.7722 190.998L68.7723 190.998C68.9972 191.455 69.2221 191.911 69.4536 192.363C69.2102 192.456 68.9524 192.593 68.6957 192.729C68.1509 193.019 67.611 193.306 67.2236 193.163C65.6427 192.613 64.1555 191.823 62.8136 190.823C59.3736 188.163 55.9936 185.423 52.7236 182.553C48.3303 178.646 43.9969 174.693 39.7236 170.693C34.8189 166.217 30.7548 160.9 27.7236 154.993C25.3951 150.461 24.0072 145.505 23.6436 140.423C23.0523 128.511 24.3277 116.58 27.4236 105.063C29.9986 94.6757 33.6309 84.5796 38.2636 74.9328C42.1336 67.0928 46.3436 59.4128 50.6536 51.8028C52.7346 48.2411 55.0953 44.8504 57.7136 41.6628C58.403 40.7942 59.4772 40.2393 60.5532 39.6835C61.038 39.433 61.5232 39.1824 61.9736 38.9028C63.7936 39.2428 64.3236 40.0828 63.8636 41.5028C63.4479 43.1183 62.8508 44.6816 62.0836 46.1628C55.9136 56.4228 52.6436 67.7228 50.0736 79.2728C45.8254 97.4907 44.0927 116.205 44.9236 134.893C45.0741 138.065 45.587 141.22 46.1002 144.376C46.4394 146.462 46.7788 148.549 47.0136 150.643C47.9158 158.641 51.8564 165.349 55.7806 172.029C56.032 172.457 56.2832 172.885 56.5336 173.313C58.4416 176.56 60.6519 179.628 62.8629 182.697L62.863 182.698ZM36.9896 174.145L36.9887 174.144C36.6464 173.837 36.3043 173.531 35.9633 173.224C28.6611 166.698 23.3681 158.227 20.7033 148.804C18.3459 140.311 17.543 131.462 18.3333 122.684C19.3333 109.194 22.9133 96.4336 27.9633 84.0435C30.3918 78.0835 33.1459 72.2614 36.2133 66.6036C38.6945 62.0228 41.4672 57.5703 44.2376 53.1214C45.096 51.743 45.9541 50.365 46.8033 48.9836C47.2129 48.3125 47.6889 47.6795 48.1644 47.0472L48.1644 47.0471L48.1645 47.0471C48.7802 46.2283 49.395 45.4107 49.8633 44.5136C50.3143 43.5763 50.3824 42.5002 50.0533 41.5136C49.8833 41.0936 48.2933 41.0836 47.3833 41.1936C46.5951 41.3349 45.8574 41.6796 45.2433 42.1936C44.2456 42.9793 43.2255 43.7451 42.2049 44.5112C39.6147 46.4557 37.0215 48.4024 34.7833 50.6836C24.4519 60.9859 15.4975 72.5822 8.1433 85.1835C2.9333 94.3536 -0.196699 104.184 0.193301 115.314C0.0828929 122.679 1.31989 130.003 3.8433 136.924C7.23623 146.205 12.0908 154.884 18.2233 162.634C23.4642 169.324 29.5098 175.342 36.2233 180.554C37.354 181.336 38.634 181.878 39.9833 182.144C42.0533 182.664 42.6933 181.924 42.1233 179.814C41.9464 179.107 41.5878 178.459 41.0833 177.934C39.7607 176.627 38.3738 175.385 36.9896 174.145ZM187.322 201.82C188.512 200.999 189.703 200.177 190.934 199.424C191.289 199.2 191.796 199.219 192.307 199.238H192.307C192.572 199.248 192.838 199.257 193.083 199.234C193.043 199.898 192.88 200.548 192.604 201.154C183.493 213.284 173.043 224.234 162.393 234.984C158.233 239.174 156.243 240.134 150.044 239.534C142.767 238.7 135.612 237.022 128.723 234.534C126.764 233.793 124.784 233.143 122.801 232.493L122.801 232.493L122.8 232.493L122.799 232.492L122.799 232.492L122.798 232.492L122.797 232.492L122.797 232.492L122.796 232.491L122.795 232.491L122.795 232.491L122.794 232.491L122.793 232.49L122.793 232.49L122.792 232.49L122.791 232.49L122.791 232.489L122.79 232.489L122.789 232.489L122.789 232.489L122.788 232.489L122.787 232.488L122.787 232.488L122.786 232.488L122.785 232.488L122.785 232.487L122.784 232.487C119.713 231.48 116.638 230.471 113.633 229.124C112.154 228.46 110.63 227.877 109.104 227.294C105.527 225.927 101.94 224.556 98.8835 222.124C98.3935 221.714 97.7335 220.824 97.8835 220.414C98.045 220.085 98.2825 219.799 98.5764 219.58C98.8703 219.36 99.212 219.214 99.5735 219.154C101.38 219.063 103.192 219.144 104.983 219.394C106.5 219.606 108.017 219.882 109.534 220.157L109.535 220.157C112.018 220.609 114.501 221.06 116.983 221.234C126.93 221.854 136.915 221.25 146.714 219.434C155.603 217.779 164.246 215 172.434 211.164C175.426 209.784 178.189 207.924 180.966 206.054L180.966 206.053L180.967 206.053L180.97 206.051C182.116 205.279 183.265 204.506 184.434 203.764C185.41 203.14 186.366 202.48 187.322 201.82ZM245.785 94.9987L245.785 94.9965C245.831 92.1131 245.878 89.2308 245.684 86.363C245.384 81.953 244.684 77.553 243.984 73.183C243.833 72.6968 243.565 72.2549 243.204 71.8958C242.844 71.5368 242.4 71.2714 241.914 71.123C241.371 71.0645 240.822 71.1235 240.305 71.2961C239.787 71.4686 239.312 71.7507 238.914 72.123C238.236 73.1293 237.887 74.3204 237.914 75.533C237.988 76.906 238.155 78.2725 238.414 79.623C239.474 90.4007 238.454 101.116 237.434 111.827L237.434 111.831L237.433 111.834C237.377 112.431 237.32 113.027 237.264 113.623C236.544 121.193 235.594 128.793 232.694 135.973C232.566 136.468 232.555 136.985 232.661 137.485C232.767 137.984 232.987 138.453 233.304 138.853C233.634 139.223 235.234 138.853 235.984 138.383C237.733 137.264 239.243 135.809 240.428 134.103C241.612 132.397 242.447 130.473 242.884 128.443C245.201 118.742 246.163 108.768 245.744 98.803C245.744 97.5354 245.764 96.267 245.785 94.9987ZM114.525 77.7014C114.978 80.5008 113.075 83.137 110.276 83.5894C107.476 84.0418 104.84 82.1392 104.388 79.3398C103.935 76.5404 105.838 73.9042 108.637 73.4518C111.437 72.9994 114.073 74.902 114.525 77.7014ZM133.734 81.8797C135.733 79.8802 135.733 76.6384 133.734 74.6389C131.734 72.6394 128.492 72.6394 126.493 74.6389C124.493 76.6384 124.493 79.8802 126.493 81.8797C128.492 83.8792 131.734 83.8792 133.734 81.8797ZM156.203 78.2631C156.203 81.0908 153.911 83.3831 151.083 83.3831C148.256 83.3831 145.963 81.0908 145.963 78.2631C145.963 75.4354 148.256 73.1431 151.083 73.1431C153.911 73.1431 156.203 75.4354 156.203 78.2631ZM175.677 81.8865C177.677 79.887 177.677 76.6452 175.677 74.6457C173.678 72.6462 170.436 72.6462 168.436 74.6457C166.437 76.6452 166.437 79.887 168.436 81.8865C170.436 83.886 173.678 83.886 175.677 81.8865ZM93.1394 77.0913C93.7889 79.8434 92.0845 82.601 89.3324 83.2505C86.5803 83.9001 83.8227 82.1956 83.1732 79.4435C82.5236 76.6915 84.2281 73.9339 86.9802 73.2843C89.7322 72.6348 92.4898 74.3392 93.1394 77.0913ZM134.845 59.2504C135.927 56.638 134.686 53.6429 132.074 52.5608C129.461 51.4787 126.466 52.7193 125.384 55.3318C124.302 57.9442 125.543 60.9392 128.155 62.0214C130.768 63.1035 133.763 61.8629 134.845 59.2504ZM114.194 57.2933C114.194 60.121 111.901 62.4133 109.074 62.4133C106.246 62.4133 103.954 60.121 103.954 57.2933C103.954 54.4656 106.246 52.1733 109.074 52.1733C111.901 52.1733 114.194 54.4656 114.194 57.2933ZM109.074 104.364C111.901 104.364 114.194 102.071 114.194 99.2435C114.194 96.4158 111.901 94.1235 109.074 94.1235C106.246 94.1235 103.954 96.4158 103.954 99.2435C103.954 102.071 106.246 104.364 109.074 104.364ZM93.4998 56.6662C93.9522 59.4657 92.0496 62.1018 89.2502 62.5542C86.4508 63.0067 83.8146 61.1041 83.3622 58.3046C82.9097 55.5052 84.8123 52.8691 87.6118 52.4166C90.4112 51.9642 93.0473 53.8668 93.4998 56.6662ZM89.2424 104.635C92.0418 104.183 93.9444 101.547 93.492 98.7473C93.0395 95.9479 90.4034 94.0453 87.604 94.4977C84.8045 94.9501 82.9019 97.5863 83.3544 100.386C83.8068 103.185 86.4429 105.088 89.2424 104.635ZM156.203 57.2933C156.203 60.121 153.911 62.4133 151.083 62.4133C148.256 62.4133 145.963 60.121 145.963 57.2933C145.963 54.4656 148.256 52.1733 151.083 52.1733C153.911 52.1733 156.203 54.4656 156.203 57.2933ZM120.743 73.0757C123.543 72.6233 125.445 69.9871 124.993 67.1877C124.541 64.3883 121.904 62.4857 119.105 62.9381C116.306 63.3906 114.403 66.0267 114.855 68.8261C115.308 71.6255 117.944 73.5282 120.743 73.0757ZM167.063 67.1955C167.516 69.995 165.613 72.6311 162.814 73.0835C160.014 73.536 157.378 71.6334 156.926 68.8339C156.473 66.0345 158.376 63.3984 161.175 62.9459C163.975 62.4935 166.611 64.3961 167.063 67.1955ZM145.265 69.7348C146.347 67.1224 145.106 64.1273 142.494 63.0452C139.881 61.9631 136.886 63.2037 135.804 65.8161C134.722 68.4286 135.963 71.4236 138.575 72.5057C141.187 73.5878 144.182 72.3473 145.265 69.7348ZM103.561 66.5981C104.21 69.3502 102.506 72.1078 99.7538 72.7573C97.0017 73.4069 94.2441 71.7025 93.5946 68.9504C92.945 66.1983 94.6495 63.4407 97.4015 62.7912C100.154 62.1416 102.911 63.8461 103.561 66.5981ZM119.534 93.9036C122.361 93.9036 124.654 91.6113 124.654 88.7836C124.654 85.9559 122.361 83.6636 119.534 83.6636C116.706 83.6636 114.414 85.9559 114.414 88.7836C114.414 91.6113 116.706 93.9036 119.534 93.9036ZM166.475 87.6157C167.124 90.3678 165.42 93.1254 162.668 93.7749C159.916 94.4245 157.158 92.72 156.509 89.9679C155.859 87.2159 157.564 84.4583 160.316 83.8087C163.068 83.1592 165.825 84.8636 166.475 87.6157ZM144.126 92.4041C146.126 90.4046 146.126 87.1628 144.126 85.1633C142.127 83.1638 138.885 83.1638 136.886 85.1633C134.886 87.1628 134.886 90.4046 136.886 92.4041C138.885 94.4036 142.127 94.4036 144.126 92.4041ZM102.183 85.1672C104.183 87.1667 104.183 90.4085 102.183 92.408C100.184 94.4075 96.9421 94.4075 94.9427 92.408C92.9432 90.4085 92.9432 87.1667 94.9427 85.1672C96.9421 83.1677 100.184 83.1677 102.183 85.1672ZM81.1531 92.3982C83.1526 90.3987 83.1526 87.1569 81.1532 85.1574C79.1537 83.158 75.9119 83.158 73.9124 85.1574C71.9129 87.1569 71.9129 90.3987 73.9124 92.3982C75.9119 94.3977 79.1537 94.3977 81.1531 92.3982ZM133.704 102.864C132.744 103.824 131.441 104.364 130.083 104.364C128.725 104.364 127.423 103.824 126.463 102.864C125.503 101.904 124.963 100.601 124.963 99.2435C124.963 97.8856 125.503 96.5833 126.463 95.6231C127.423 94.663 128.725 94.1235 130.083 94.1235C131.441 94.1235 132.744 94.663 133.704 95.6231C134.664 96.5833 135.203 97.8856 135.203 99.2435C135.203 100.601 134.664 101.904 133.704 102.864ZM119.534 114.853C122.361 114.853 124.654 112.56 124.654 109.733C124.654 106.905 122.361 104.613 119.534 104.613C116.706 104.613 114.414 106.905 114.414 109.733C114.414 112.56 116.706 114.853 119.534 114.853ZM103.927 109.268C104.379 112.067 102.476 114.703 99.6769 115.156C96.8775 115.608 94.2414 113.706 93.7889 110.906C93.3365 108.107 95.2391 105.471 98.0385 105.018C100.838 104.566 103.474 106.468 103.927 109.268ZM78.5768 115.151C81.3762 114.698 83.2789 112.062 82.8264 109.263C82.374 106.464 79.7378 104.561 76.9384 105.013C74.139 105.466 72.2364 108.102 72.6888 110.901C73.1413 113.701 75.7774 115.603 78.5768 115.151ZM124.654 46.7728C124.654 49.6005 122.361 51.8928 119.534 51.8928C116.706 51.8928 114.414 49.6005 114.414 46.7728C114.414 43.9451 116.706 41.6528 119.534 41.6528C122.361 41.6528 124.654 43.9451 124.654 46.7728Z" fill="#FFD1DC"/>
</g>
</svg>
