<svg width="360" height="254" viewBox="0 0 360 254" fill="none" xmlns="http://www.w3.org/2000/svg">
<path fill-rule="evenodd" clip-rule="evenodd" d="M177.948 73.2789C178.317 74.5186 177.948 75.144 176.753 75.144C175.915 75.144 174.687 75.144 173.068 75.2222C171.448 75.3003 170.264 75.3003 169.494 75.3003C169.17 75.0546 168.846 74.7754 168.511 74.485V36.0439C168.589 35.4631 167.126 33.8102 164.144 31.2415L147.582 16.8456C146.629 16.1011 145.3 15.0103 143.595 13.5733C142.98 13.3946 142.668 13.6627 142.668 14.3886V73.1225C142.668 74.4739 142.198 75.144 141.249 75.144H134.481C133.8 75.144 133.364 75.0323 133.364 74.8089V73.6139C133.364 65.9376 133.409 54.2146 133.498 38.4451C133.588 22.6755 133.632 10.9488 133.632 3.26503C133.632 1.66797 133.968 0.863855 134.615 0.863855H137.419H140.278C141.148 0.78135 142.023 0.972661 142.779 1.4111C143.524 1.99185 147.991 5.95286 156.181 13.2941C163.686 19.9951 167.588 23.3456 167.886 23.3456C168.243 23.4126 168.444 23.178 168.477 22.6308V2.7848C168.41 1.869 168.466 1.32175 168.645 1.14306C169.133 0.890335 169.686 0.792904 170.231 0.863855H172.677H175.134C176.842 0.863855 177.691 1.14306 177.691 1.6903L177.948 73.2789ZM25.3338 53.7679C25.4623 56.7051 25.2788 59.6477 24.7866 62.5462C22.3519 70.9447 14.9361 75.144 2.53936 75.144C2.25832 75.1831 1.97205 75.1357 1.71865 75.008C1.46525 74.8803 1.25673 74.6784 1.12097 74.4292L0.9646 68.2197C0.9646 67.2703 1.17686 66.6561 1.7241 66.3657C4.5445 66.2518 7.35216 65.9232 10.1227 65.3829C11.4793 65.0747 12.6897 64.3118 13.553 63.2209C14.4164 62.13 14.8808 60.7767 14.8692 59.3856C15.368 47.4206 15.5131 28.1144 15.3046 1.46693L15.6844 0.975527H24.4068C24.6655 1.1711 24.8813 1.41774 25.0407 1.70015C25.2002 1.98255 25.3 2.29472 25.3338 2.61726V53.7679ZM76.9535 25.7691C76.9863 28.7044 76.4006 31.6136 75.2345 34.3075C74.0684 37.0015 72.348 39.4196 70.1855 41.4046C68.0842 43.4862 65.5904 45.1297 62.8488 46.2398C60.1072 47.3498 57.1725 47.9043 54.2149 47.8711C51.4311 47.8723 48.6776 47.2917 46.1312 46.1666C43.5848 45.0415 41.3017 43.3967 39.4282 41.3376C37.4168 39.3743 35.8168 37.0297 34.7219 34.441C33.6269 31.8522 33.0589 29.0712 33.051 26.2605C33.051 19.3138 34.8677 13.51 38.5011 8.84916C40.3817 6.39028 42.8247 4.41834 45.625 3.09885C48.4253 1.77935 51.5012 1.15079 54.5946 1.26591H56.5044C62.6469 1.26591 67.6801 3.87184 71.6039 9.08369C75.1829 13.901 77.0642 19.7688 76.9535 25.7691ZM68.3874 23.4684C68.5333 19.8345 67.3725 16.2685 65.1152 13.417C63.9862 12.0163 62.5467 10.8976 60.9107 10.1494C59.2747 9.40114 57.487 9.04393 55.6891 9.10602C51.1399 9.10602 47.6666 10.6696 45.2692 13.7967C43.0876 16.6409 41.9968 20.412 41.9968 25.1102C41.9828 28.6712 43.3153 32.106 45.7271 34.726C46.8356 36.0549 48.2247 37.1216 49.7947 37.8496C51.3646 38.5776 53.0764 38.9488 54.8069 38.9365C56.7319 38.9726 58.6384 38.5559 60.3728 37.7197C62.1071 36.8836 63.6206 35.6516 64.7913 34.1229C67.2068 31.1055 68.4803 27.3325 68.3874 23.4684ZM60.6479 56.7052C60.6963 57.786 60.6213 58.8689 60.4244 59.9328C60.3085 60.4267 60.0195 60.8628 59.6097 61.1619C59.1999 61.4611 58.6965 61.6035 58.1908 61.5634H53.1762C52.6398 61.6195 52.1013 61.4797 51.66 61.1697C51.2186 60.8598 50.9042 60.4006 50.775 59.877C50.6169 58.7376 50.561 57.5864 50.6076 56.4371C50.6076 53.1015 51.4638 51.5194 53.1762 51.6906C54.8437 51.8561 56.5234 51.8561 58.1908 51.6906C59.8325 51.5789 60.6479 53.2765 60.6479 56.6493V56.7052ZM60.8153 70.1071C60.8632 71.1842 60.7884 72.2634 60.592 73.3235C60.47 73.8141 60.1794 74.2462 59.7711 74.5443C59.3628 74.8423 58.8627 74.9874 58.3583 74.9541H53.3438C52.8074 75.0103 52.2689 74.8705 51.8275 74.5605C51.3862 74.2505 51.0718 73.7913 50.9426 73.2677C50.8326 72.1246 50.7953 70.9757 50.8309 69.8279C50.8309 66.4923 51.6685 64.9101 53.3438 65.0814C55.0114 65.242 56.6907 65.242 58.3583 65.0814C59.9963 65.0292 60.8153 66.6933 60.8153 70.0736V70.1071ZM114.937 75.144H123.168L123.391 1.42227L122.956 1.09839H115.205L114.557 1.42227V10.9711L114.222 11.5184H93.9404L93.6166 11.1833V1.4111L93.0693 1.08722H84.4474L84.0118 1.4111V74.3957L84.4474 75.1105H93.0693L93.3932 30.7725C93.3932 30.3704 93.5608 30.1694 93.8846 30.1694H114.557V74.6526L114.937 75.144ZM114.557 17.5604V22.575H93.6166L93.2256 22.1394V17.996L93.6166 17.5604H114.557ZM221.225 68.7557C225.422 64.224 227.707 58.2463 227.602 52.0703C227.602 45.965 225.093 40.0942 220.075 34.458C217.968 32.1275 213.314 28.1107 206.115 22.4074C201.133 18.4092 198.643 15.3379 198.643 13.1936C198.643 10.8631 199.916 9.69793 202.462 9.69793C203.964 9.7569 205.458 9.93994 206.93 10.2452C208.4 10.5551 209.895 10.7381 211.397 10.7924C213.028 10.7924 213.854 9.0725 213.854 5.72203C213.847 2.74382 210.902 1.25472 205.02 1.25472C201.438 1.1718 197.886 1.93717 194.656 3.48837C190.985 5.37209 189.15 8.13065 189.15 11.7641C189.142 16.7451 191.704 21.741 196.834 26.7519L211.073 38.5791C216.196 43.0017 218.757 47.0334 218.757 50.6743V52.1932V53.6674C218.775 55.4827 218.392 57.2796 217.633 58.9287C216.874 60.5779 215.759 62.0384 214.368 63.2051C211.637 65.7416 208.043 67.1433 204.316 67.1252C201.593 66.902 198.927 66.2184 196.432 65.1037C194.566 64.2953 192.643 63.6234 190.68 63.0934C189.987 63.0934 189.15 64.0762 188.033 66.0307C187.207 67.3015 186.659 68.7325 186.425 70.2299C186.425 71.8717 189.161 73.3012 194.611 74.5409C198.037 75.4031 201.545 75.8973 205.076 76.0151C208.134 76.0535 211.163 75.4238 213.953 74.1699C216.742 72.916 219.224 71.0683 221.225 68.7557ZM273.001 25.7691C273.043 28.6995 272.468 31.6059 271.314 34.2996C270.159 36.9933 268.451 39.4141 266.3 41.4047C264.198 43.4876 261.702 45.1318 258.958 46.2419C256.215 47.352 253.278 47.9058 250.318 47.8711C247.527 47.8792 244.765 47.302 242.21 46.1767C239.656 45.0513 237.365 43.4028 235.487 41.3376C233.474 39.3758 231.872 37.0315 230.777 34.4425C229.682 31.8534 229.115 29.0716 229.11 26.2605C229.11 19.3138 230.927 13.5101 234.56 8.84917C236.44 6.39186 238.881 4.42089 241.679 3.10146C244.477 1.78204 247.551 1.1526 250.642 1.26592H252.552C258.695 1.26592 263.732 3.87184 267.663 9.0837C271.239 13.9021 273.116 19.77 273.001 25.7691ZM264.446 23.4684C264.587 19.8352 263.427 16.2709 261.174 13.417C260.043 12.0161 258.601 10.8974 256.964 10.1492C255.326 9.40106 253.536 9.04393 251.737 9.10603C247.188 9.10603 243.714 10.6696 241.317 13.7967C239.135 16.6409 238.045 20.412 238.045 25.1102C238.029 28.6735 239.366 32.1101 241.786 34.726C242.894 36.0549 244.284 37.1216 245.854 37.8496C247.424 38.5777 249.135 38.9488 250.866 38.9365C252.789 38.9709 254.693 38.5533 256.425 37.7172C258.158 36.8811 259.67 35.65 260.839 34.1229C263.258 31.1066 264.535 27.3338 264.446 23.4684ZM256.695 56.7052C256.745 57.7856 256.674 58.8682 256.483 59.9328C256.367 60.4267 256.078 60.8628 255.669 61.1619C255.259 61.4611 254.755 61.6035 254.25 61.5634H249.224C248.687 61.6317 248.144 61.4965 247.701 61.1844C247.259 60.8722 246.95 60.4058 246.834 59.877C246.676 58.7376 246.62 57.5864 246.666 56.4371C246.666 53.1016 247.519 51.5194 249.224 51.6906C250.895 51.8561 252.579 51.8561 254.25 51.6906C255.88 51.5789 256.695 53.2765 256.695 56.6493V56.7052ZM256.863 70.1071C256.913 71.1838 256.841 72.2627 256.651 73.3235C256.525 73.8252 256.224 74.2653 255.802 74.5643C255.38 74.8634 254.865 75.0016 254.35 74.9541H249.336C248.799 75.0103 248.261 74.8705 247.819 74.5605C247.378 74.2505 247.064 73.7913 246.934 73.2677C246.837 72.1238 246.804 70.9755 246.834 69.8279C246.834 66.4774 247.66 64.9027 249.336 65.0814C251.003 65.242 252.683 65.242 254.35 65.0814C256.04 65.0293 256.885 66.6933 256.885 70.0736L256.863 70.1071ZM323.526 75.144C324.733 75.144 325.09 74.5186 324.733 73.2789L324.487 1.6903C324.487 1.14306 323.638 0.863854 321.929 0.863854H319.472H317.015C316.474 0.793787 315.925 0.891231 315.441 1.14306C315.273 1.32175 315.206 1.869 315.273 2.7848V22.6308C315.24 23.178 315.039 23.4126 314.67 23.3456C314.387 23.3456 310.486 19.9951 302.966 13.2941C294.776 5.95286 290.308 1.99185 289.564 1.4111C288.807 0.972661 287.933 0.781349 287.062 0.863854H284.203H281.4C280.741 0.863854 280.417 1.66797 280.417 3.26503C280.417 10.9488 280.372 22.6755 280.283 38.4451C280.194 54.2146 280.149 65.9376 280.149 73.6139V74.8089C280.201 75.0323 280.573 75.144 281.266 75.144H288.034C288.972 75.144 289.452 74.4739 289.452 73.1225V14.3886C289.452 13.6627 289.754 13.3946 290.379 13.5733C292.091 15.0103 293.421 16.1011 294.366 16.8456L310.929 31.2415C313.911 33.8102 315.374 35.4631 315.296 36.0439V74.485C315.619 74.7754 315.954 75.0546 316.278 75.3003C317.038 75.3003 318.233 75.3003 319.852 75.2222C321.471 75.144 322.689 75.144 323.526 75.144ZM64.7913 152.585C64.8961 158.761 62.6115 164.738 58.4142 169.27C56.413 171.583 53.931 173.43 51.1416 174.684C48.3523 175.938 45.3228 176.568 42.2648 176.529C38.7341 176.412 35.226 175.917 31.8002 175.055C26.35 173.816 23.6251 172.386 23.6251 170.744C23.8593 169.247 24.4072 167.816 25.2332 166.545C26.35 164.591 27.1876 163.608 27.8689 163.608C29.8356 164.139 31.7616 164.811 33.6318 165.618C36.1056 166.726 38.7486 167.41 41.4496 167.64C45.1765 167.658 48.7704 166.256 51.501 163.719C52.8918 162.553 54.0069 161.092 54.7659 159.443C55.5248 157.794 55.9087 155.997 55.8902 154.182V152.708V151.189C55.8902 147.548 53.3289 143.516 48.2064 139.093L33.9669 127.266C28.8369 122.255 26.2757 117.259 26.2831 112.278C26.2831 108.652 28.1183 105.894 31.789 104.003C35.0193 102.452 38.5707 101.686 42.1532 101.769C48.0351 101.769 50.9799 103.258 50.9873 106.236C50.9873 109.587 50.1608 111.307 48.5302 111.307C47.0282 111.253 45.5336 111.069 44.0629 110.76C42.5914 110.454 41.0972 110.271 39.5956 110.212C37.0492 110.212 35.7761 111.378 35.7761 113.708C35.7761 115.852 38.2666 118.924 43.2476 122.922C50.4474 128.625 55.1009 132.642 57.208 134.972C62.2635 140.609 64.7913 146.479 64.7913 152.585ZM106.773 175.602C107.087 175.374 107.382 175.12 107.655 174.843L107.677 167.863C107.354 167.569 106.974 167.345 106.561 167.204C105.756 167.316 104.975 167.316 104.215 167.316C100.617 167.408 97.0546 166.58 93.8666 164.908C90.6786 163.237 87.9706 160.779 85.9998 157.767C81.9643 152.034 79.9465 145.072 79.9465 136.882C79.9391 129.935 81.2831 124.027 83.9784 119.158C87.3214 113.202 92.1945 110.223 98.5976 110.223C99.5022 110.223 100.82 110.279 102.551 110.413C104.282 110.547 105.522 110.614 106.281 110.614L106.773 110.123V102.707L106.281 102.372C103.972 101.866 101.62 101.574 99.2565 101.501C90.4633 101.501 83.3008 105.644 77.7688 113.931C72.8774 121.29 70.3272 129.957 70.4535 138.792C70.3262 147.898 73.2865 156.779 78.852 163.987C84.9276 171.947 92.563 175.926 101.758 175.926C102.819 175.926 104.539 175.815 106.773 175.602ZM155.723 175.658H147.436L147.057 175.167V130.684H126.395C126.06 130.684 125.904 130.885 125.904 131.287L125.569 175.625H116.958L116.523 174.91V101.925L116.958 101.602H125.569L126.116 101.925V111.698L126.44 112.033H146.733L147.057 111.486V101.925L147.716 101.602H155.455L155.891 101.925L155.723 175.658ZM147.101 123.089V118.075H126.217L125.837 118.51V122.654L126.217 123.089H147.101ZM217.696 175.658C218.277 175.658 218.567 175.312 218.567 174.62L218.4 104.103C218.4 102.328 217.729 101.434 216.389 101.434H208.158C207.321 101.434 206.84 101.825 206.74 102.551C198.408 114.508 193.807 120.487 192.936 120.487C192.191 120.487 189.585 117.706 185.118 112.144C182.47 108.655 179.648 105.3 176.664 102.093C176.158 101.691 173.086 101.49 167.45 101.49C166.4 101.49 165.864 102.16 165.864 103.511V173.749C165.864 175.055 166.501 175.714 167.617 175.714H173.771C174.609 175.714 175.033 174.932 175.033 173.481V116.623C175.007 116.45 175.048 116.274 175.147 116.131C175.247 115.987 175.398 115.887 175.569 115.852C182.553 123.558 187.679 129.414 190.948 133.42C191.105 133.646 191.309 133.836 191.546 133.977C191.783 134.118 192.048 134.206 192.322 134.235C193.148 134.235 195.873 131.164 200.553 125.044C205.232 118.924 207.857 115.852 208.371 115.852C208.884 115.852 209.13 116.388 209.13 117.438V174.396C209.13 175.234 209.733 175.658 210.939 175.658H217.696ZM237.631 175.547H229.121C228.507 175.547 228.194 175.401 228.194 175.111V102.852C228.194 102.127 229.936 101.736 233.432 101.736C235.867 101.736 237.263 102.093 237.631 102.852V175.547ZM281.288 164.524C285.428 158.202 287.498 149.796 287.498 139.306C287.49 114.021 276.85 101.408 255.579 101.468C255.271 101.468 254.956 101.462 254.623 101.456C253.892 101.444 253.07 101.429 252.027 101.468C250.508 101.523 249.324 101.523 248.487 101.523C247.906 101.523 247.616 101.87 247.616 102.64V175.636C249.458 175.965 251.335 176.055 253.2 175.904L259.141 175.692C269.029 175.692 276.411 171.969 281.288 164.524ZM274.085 119.929C276.889 125.948 278.269 132.533 278.116 139.172H278.105C278.257 145.401 276.896 151.575 274.14 157.164C270.835 163.567 266.055 166.768 259.8 166.768H256.964V109.397H259.086C265.667 109.397 270.667 112.908 274.085 119.929ZM328.362 106.426C328.419 107.392 328.324 108.36 328.083 109.297C327.726 110.022 326.899 110.413 325.626 110.413H311.833C311.398 110.413 311.174 110.849 311.174 111.72V174.017C311.223 174.406 311.121 174.799 310.888 175.115C310.655 175.431 310.31 175.646 309.923 175.714C309.875 175.714 309.784 175.718 309.651 175.724C309.294 175.74 308.634 175.77 307.69 175.77H305.021C304.6 175.712 304.197 175.565 303.839 175.337C303.48 175.11 303.175 174.808 302.943 174.452V122.989C302.943 114.873 302.783 110.67 302.463 110.38L289.251 110.492C288.525 110.492 288.134 109.107 288.134 106.348C288.134 103.109 288.659 101.49 289.72 101.49H325.983C327.569 101.49 328.362 103.135 328.362 106.426ZM337.654 175.167L338.414 173.86C338.414 167.863 338.179 164.691 337.799 164.401L331.411 164.725C331.034 164.713 330.66 164.661 330.294 164.568C330.01 164.484 329.718 164.428 329.423 164.401C328.764 164.401 328.44 165.16 328.44 166.634C328.44 166.672 328.511 168.879 328.653 173.257L324.576 177.468L324.744 178.584L329.367 183.052L330.786 182.728L337.654 175.357V175.167ZM345.249 38.5456C345.299 39.6223 345.228 40.7013 345.037 41.762C344.923 42.258 344.635 42.6967 344.225 42.998C343.815 43.2994 343.31 43.4434 342.803 43.4038H337.777C337.241 43.4599 336.702 43.3201 336.261 43.0101C335.819 42.7002 335.505 42.241 335.376 41.7174C335.23 40.5769 335.178 39.4265 335.22 38.2775C335.22 34.9419 336.072 33.3598 337.777 33.531C339.448 33.6965 341.132 33.6965 342.803 33.531C344.434 33.5198 345.249 35.1727 345.249 38.5456ZM345.193 55.1863C345.389 54.1261 345.464 53.047 345.416 51.9698C345.416 48.6044 344.571 46.9217 342.881 46.9217C341.24 47.0897 339.587 47.0972 337.945 46.9441C336.269 46.7728 335.432 48.355 335.432 51.6906C335.402 52.8384 335.44 53.9869 335.544 55.1304C335.673 55.654 335.987 56.1132 336.428 56.4232C336.87 56.7332 337.408 56.873 337.945 56.8168H342.959C343.464 56.8524 343.965 56.7082 344.374 56.4097C344.783 56.1113 345.073 55.6779 345.193 55.1863ZM348.979 51.7464C348.93 50.6693 349.005 49.59 349.202 48.53C349.316 48.034 349.604 47.5953 350.014 47.294C350.424 46.9926 350.929 46.8486 351.436 46.8883H356.451C356.988 46.8326 357.528 46.974 357.97 47.2862C358.411 47.5984 358.725 48.0601 358.852 48.5858C359.01 49.7214 359.066 50.8689 359.019 52.0145C359.019 55.365 358.163 56.9471 356.451 56.761C354.781 56.6196 353.102 56.6383 351.436 56.8168C349.805 56.8168 348.979 55.1304 348.979 51.7464ZM349.035 35.1169C348.843 36.1776 348.772 37.2567 348.823 38.3334C348.823 41.7136 349.638 43.4038 351.268 43.4038C352.938 43.2252 354.621 43.2065 356.294 43.3479C357.958 43.5266 358.796 41.9519 358.796 38.6014C358.832 37.4573 358.794 36.3121 358.684 35.1728C358.557 34.6492 358.246 34.189 357.807 33.877C357.367 33.5651 356.83 33.4224 356.294 33.4752H351.268C350.763 33.4447 350.263 33.5922 349.855 33.8921C349.447 34.192 349.157 34.6254 349.035 35.1169ZM197.169 157.767C197.218 158.844 197.143 159.923 196.945 160.983C196.832 161.479 196.544 161.918 196.134 162.219C195.724 162.521 195.219 162.665 194.712 162.625H189.697C189.159 162.681 188.619 162.539 188.178 162.227C187.736 161.915 187.423 161.453 187.296 160.927C187.137 159.792 187.081 158.644 187.128 157.499C187.128 154.148 187.988 152.574 189.697 152.752C191.365 152.912 193.044 152.912 194.712 152.752C196.342 152.696 197.169 154.383 197.169 157.767ZM197.113 174.396C197.305 173.336 197.376 172.257 197.325 171.18C197.325 167.807 196.487 166.109 194.879 166.165C193.208 166.331 191.525 166.331 189.853 166.165C188.189 165.987 187.352 167.561 187.352 170.912C187.316 172.06 187.353 173.209 187.463 174.352C187.592 174.873 187.905 175.331 188.344 175.641C188.783 175.95 189.319 176.091 189.853 176.038H194.879C195.385 176.069 195.885 175.921 196.293 175.621C196.701 175.321 196.991 174.888 197.113 174.396Z" fill="white"/>
<path fill-rule="evenodd" clip-rule="evenodd" d="M47.7343 248.58L48.1587 247.921L36.6106 204.633L36.0188 204.052H30.0326L19.2998 247.921L19.7577 248.714C20.9788 248.647 22.386 248.647 23.9794 248.714L24.3702 248.546L29.5412 225.741H37.4706L42.2954 247.921L42.9766 248.58H47.7343ZM36.3426 220.413L36.6106 222.144H30.323L30.6915 220.413H36.3426ZM33.8744 209.513L35.4938 216.906L31.0488 216.918L32.7576 209.513H33.8744ZM77.6666 248.535C77.7892 248.424 77.8779 248.281 77.9221 248.122C77.4679 246.551 76.0495 241.849 73.6669 234.016C71.9172 228.291 70.5621 223.566 69.6017 219.844C73.4882 217.491 75.4315 214.513 75.4315 210.909C75.4954 209.137 74.8894 207.407 73.734 206.062C73.1388 205.415 72.41 204.905 71.5981 204.567C70.7862 204.23 69.9106 204.073 69.0321 204.108C67.3792 204.07 64.8999 204.052 61.5941 204.052H54.156C53.4115 204.052 53.0392 204.554 53.0392 205.559V247.306C53.0392 248.222 53.3519 248.68 53.9885 248.68H57.7186C58.3552 248.68 58.6679 248.446 58.6679 247.988V223.775C60.9836 223.609 63.2671 223.135 65.4583 222.368C69.7692 237.46 71.9248 245.773 71.9248 247.306C71.8947 247.511 71.9129 247.721 71.9781 247.917C72.0432 248.114 72.1535 248.292 72.2999 248.439C72.4464 248.585 72.625 248.696 72.8217 248.761C73.0183 248.826 73.2275 248.844 73.4324 248.814C73.709 248.808 73.9849 248.785 74.2589 248.747C74.5366 248.709 74.8163 248.687 75.0965 248.68L76.1129 248.814C76.4865 248.842 76.8621 248.819 77.2297 248.747C77.3925 248.719 77.544 248.646 77.6666 248.535ZM62.9342 208.955C67.7143 208.925 70.1043 209.766 70.1043 211.479H70.0708C70.0708 213.288 68.6636 214.922 65.8492 216.382C63.777 217.555 61.4504 218.207 59.0701 218.28H58.7462C58.6457 214.384 58.6457 212.117 58.6457 211.457V211.456C58.6457 211.362 58.6395 211.268 58.6328 211.166C58.6174 210.93 58.599 210.649 58.6457 210.205C58.7126 209.57 58.7126 209.157 58.7126 208.955V208.955H62.9342ZM102.012 248.155C101.856 248.329 101.68 248.482 101.487 248.613C100.113 248.747 99.1194 248.814 98.4828 248.814C92.9657 248.814 88.383 246.424 84.7347 241.644C81.3997 237.315 79.6247 231.987 79.6978 226.522C79.6432 221.229 81.1929 216.042 84.1428 211.646C87.4635 206.665 91.7596 204.178 97.031 204.186C98.451 204.227 99.8641 204.399 101.253 204.7L101.543 204.901V209.368L101.253 209.669C100.795 209.669 100.046 209.669 99.0189 209.558C97.9914 209.446 97.1984 209.435 96.6512 209.435C94.8288 209.397 93.0338 209.882 91.4796 210.835C89.9254 211.787 88.6775 213.166 87.8841 214.807C86.1826 218.086 85.3484 221.746 85.4607 225.439C85.3202 229.894 86.5905 234.28 89.0904 237.97C90.2744 239.777 91.9001 241.251 93.8135 242.254C95.7269 243.256 97.8645 243.754 100.024 243.699C100.478 243.699 100.947 243.677 101.431 243.632C101.67 243.72 101.89 243.853 102.079 244.023L102.012 248.155ZM127.219 248.647H132.166L132.289 204.409L132.032 204.208H127.386L126.995 204.409V210.138L126.794 210.462H114.621L114.431 210.261V204.409L114.107 204.208H108.936L108.668 204.409V248.233L108.936 248.658H114.107L114.297 222.055C114.297 221.82 114.398 221.698 114.587 221.698H126.995V248.356L127.219 248.647ZM126.995 214.092V217.107H114.431L114.197 216.839V214.36L114.431 214.092H126.995ZM146.506 248.58H141.403C141.034 248.58 140.844 248.49 140.844 248.323V204.945C140.844 204.51 141.894 204.286 143.994 204.286C145.445 204.286 146.294 204.51 146.506 204.945V248.58ZM176.851 208.832C176.998 208.271 177.054 207.69 177.018 207.112C177.018 205.135 176.538 204.152 175.577 204.152H153.822C153.185 204.152 152.872 205.113 152.872 207.056C152.872 208.72 153.084 209.547 153.52 209.547L161.449 209.48C161.643 209.666 161.74 212.186 161.74 217.04V247.887C161.876 248.102 162.058 248.284 162.272 248.421C162.486 248.558 162.728 248.646 162.98 248.68H164.588H165.961C166.193 248.639 166.399 248.511 166.539 248.321C166.678 248.132 166.739 247.897 166.71 247.664V210.261C166.71 209.748 166.844 209.48 167.101 209.48H175.387C176.147 209.48 176.638 209.267 176.851 208.832ZM199.176 216.281H187.829L187.728 216.449C187.795 216.605 187.829 225.778 187.829 243.967H198.227C198.533 244.713 198.656 245.521 198.584 246.324C198.622 247.11 198.42 247.889 198.003 248.557H183.015C182.725 248.557 182.591 248.367 182.591 247.999V204.443C182.794 204.252 183.061 204.145 183.339 204.141H194.34V208.463H187.829V211.579H198.997C199.053 211.569 199.109 211.569 199.165 211.579L199.176 216.281ZM224.271 248.613C224.461 248.484 224.634 248.33 224.785 248.155V243.989C224.597 243.817 224.377 243.684 224.137 243.599C223.66 243.643 223.191 243.666 222.73 243.666C220.57 243.719 218.433 243.221 216.52 242.219C214.607 241.216 212.981 239.742 211.796 237.936C209.3 234.244 208.03 229.86 208.166 225.405C208.054 221.713 208.888 218.053 210.59 214.773C211.384 213.133 212.632 211.755 214.186 210.803C215.74 209.851 217.535 209.364 219.357 209.401C219.904 209.401 220.708 209.412 221.736 209.524C222.763 209.636 223.511 209.636 223.969 209.636L224.271 209.334V204.867L223.969 204.666C222.581 204.365 221.168 204.193 219.748 204.152C214.469 204.145 210.173 206.632 206.86 211.613C203.923 216.025 202.393 221.223 202.47 226.522C202.396 231.988 204.176 237.319 207.519 241.644C211.159 246.424 215.738 248.814 221.256 248.814C221.888 248.814 222.894 248.747 224.271 248.613ZM254.716 207.112C254.752 207.69 254.695 208.271 254.548 208.832C254.325 209.267 253.833 209.48 253.074 209.48H244.798C244.53 209.48 244.407 209.748 244.407 210.261V247.664C244.437 247.899 244.374 248.135 244.232 248.325C244.091 248.514 243.881 248.642 243.648 248.68C243.19 248.704 242.732 248.704 242.274 248.68H240.677C240.424 248.645 240.181 248.556 239.966 248.419C239.75 248.283 239.566 248.101 239.426 247.887V217.04C239.426 212.182 239.337 209.658 239.136 209.48L231.218 209.547C230.782 209.547 230.559 208.72 230.559 207.056C230.559 205.113 230.883 204.152 231.508 204.152H253.275C254.235 204.152 254.716 205.135 254.716 207.112ZM260.3 248.356L260.758 247.563C260.713 243.967 260.59 242.091 260.389 241.934L256.57 242.136C256.336 242.13 256.103 242.097 255.877 242.035C255.706 241.984 255.53 241.95 255.352 241.934C254.961 241.934 254.772 242.381 254.772 243.264C254.772 243.286 254.805 244.615 254.894 247.239L252.448 249.763L252.549 250.456L255.319 253.159L256.179 252.969L260.3 248.501V248.356ZM305.152 210.954C305.152 214.677 303.216 217.751 299.344 220.179C296.04 222.244 292.284 223.478 288.399 223.775V247.954C288.399 248.412 288.087 248.647 287.45 248.647H283.686C283.061 248.647 282.748 248.189 282.748 247.273V205.559C282.748 204.554 283.12 204.052 283.865 204.052H291.303C294.609 204.052 297.088 204.07 298.741 204.108C299.612 204.068 300.482 204.219 301.288 204.551C302.095 204.883 302.819 205.387 303.409 206.029C304.599 207.387 305.222 209.15 305.152 210.954ZM299.757 211.479C299.757 209.766 297.367 208.925 292.587 208.955H288.366V210.161V211.456V211.458C288.366 212.074 288.366 214.34 288.455 218.28H288.79C291.144 218.198 293.444 217.546 295.491 216.382C298.335 214.9 299.757 213.266 299.757 211.479ZM298.998 247.496C299.105 246.862 299.147 246.218 299.121 245.575C299.121 243.543 298.629 242.538 297.647 242.56C296.648 242.659 295.641 242.659 294.642 242.56C293.615 242.448 293.101 243.398 293.101 245.408C293.073 246.094 293.106 246.782 293.201 247.463C293.274 247.78 293.461 248.06 293.727 248.247C293.993 248.435 294.319 248.518 294.642 248.479H297.647C297.953 248.511 298.261 248.428 298.51 248.246C298.76 248.065 298.933 247.798 298.998 247.496ZM329.658 248.155L329.133 248.613C327.86 248.747 326.899 248.814 326.117 248.814C320.6 248.814 316.021 246.424 312.381 241.644C309.041 237.318 307.265 231.987 307.344 226.522C307.262 221.224 308.789 216.026 311.722 211.613C315.035 206.632 319.331 204.145 324.61 204.152C327.257 204.152 328.764 204.387 329.133 204.867V209.334L328.831 209.636L326.542 209.502C325.581 209.435 324.811 209.401 324.219 209.401C320.399 209.401 317.488 211.203 315.485 214.807C313.687 218.441 312.852 222.476 313.059 226.526C313.267 230.576 314.51 234.504 316.669 237.936C317.859 239.743 319.489 241.216 321.406 242.219C323.323 243.221 325.463 243.719 327.625 243.666C328.087 243.666 328.545 243.643 328.999 243.599L329.658 243.989V248.155ZM340.569 247.496C340.677 246.862 340.718 246.218 340.692 245.575C340.692 243.543 340.204 242.538 339.229 242.56C338.23 242.659 337.224 242.659 336.225 242.56C335.197 242.448 334.684 243.398 334.684 245.408C334.655 246.094 334.689 246.782 334.784 247.463C334.856 247.78 335.043 248.06 335.309 248.247C335.575 248.435 335.902 248.518 336.225 248.479H339.218C339.525 248.511 339.832 248.428 340.082 248.246C340.331 248.065 340.505 247.798 340.569 247.496Z" fill="white"/>
</svg>
